<?xml version="1.0" standalone="no"?>
<!DOCTYPE svg PUBLIC "-//W3C//DTD SVG 20010904//EN"
 "http://www.w3.org/TR/2001/REC-SVG-20010904/DTD/svg10.dtd">
<svg version="1.0" xmlns="http://www.w3.org/2000/svg"
 width="144.000000pt" height="131.000000pt" viewBox="0 0 144.000000 131.000000"
 preserveAspectRatio="xMidYMid meet">

<g transform="translate(0.000000,131.000000) scale(0.100000,-0.100000)"
fill="#000000" stroke="none">
<path d="M1018 1169 c-115 -58 -105 -59 52 -5 41 14 76 26 78 26 1 0 2 5 2 10
0 21 -58 8 -132 -31z"/>
<path d="M1148 1077 c-5 -10 -8 -28 -8 -40 0 -45 -27 -102 -53 -111 -21 -8
-33 -3 -74 26 -60 43 -163 101 -170 95 -2 -3 35 -29 82 -58 47 -30 109 -69
137 -87 62 -40 73 -34 88 51 12 64 10 155 -2 124z"/>
<path d="M704 861 c-31 -19 -64 -75 -64 -108 1 -10 10 -34 21 -53 11 -20 17
-26 14 -13 -27 99 12 156 122 182 l38 9 -50 1 c-33 1 -61 -6 -81 -18z"/>
<path d="M890 779 c0 -72 -45 -124 -124 -143 -41 -10 -15 -26 42 -26 105 0
164 90 117 180 -22 42 -35 37 -35 -11z"/>
<path d="M259 691 c-46 -29 -89 -84 -89 -114 0 -13 6 -14 38 -5 49 13 63 27
34 34 -33 9 -27 28 26 73 56 48 54 51 -9 12z"/>
<path d="M429 650 c-45 -48 -48 -49 -95 -46 -27 2 -34 1 -17 -1 19 -2 37 -12
43 -24 6 -10 14 -19 19 -19 4 0 26 26 48 58 69 99 69 103 2 32z"/>
<path d="M353 470 c22 -18 57 -38 187 -112 78 -45 173 -112 162 -116 -7 -2
-12 -10 -12 -17 0 -8 -8 -19 -17 -24 -16 -9 -16 -10 3 -11 22 0 34 17 40 55 3
20 -14 33 -176 133 -57 36 -199 112 -208 112 -2 0 7 -9 21 -20z"/>
<path d="M260 450 c0 -5 5 -10 10 -10 6 0 10 5 10 10 0 6 -4 10 -10 10 -5 0
-10 -4 -10 -10z"/>
<path d="M843 203 c0 -32 1 -61 4 -66 9 -15 40 14 67 63 31 56 30 76 -2 36
-25 -33 -40 -33 -48 -1 -11 43 -21 27 -21 -32z"/>
</g>
</svg>
