<svg width="36" height="36" viewBox="0 0 36 36" fill="none" xmlns="http://www.w3.org/2000/svg">
<g clip-path="url(#clip0_432_3927)">
<path d="M24 24.0002L18 18.0002L12 24.0002" stroke="white" stroke-width="3.2" stroke-linecap="round" stroke-linejoin="round"/>
<path d="M18 18.0002V31.5002" stroke="white" stroke-width="3.2" stroke-linecap="round" stroke-linejoin="round"/>
<path d="M30.5852 27.5855C32.0482 26.7879 33.2039 25.5258 33.87 23.9984C34.5361 22.471 34.6745 20.7653 34.2635 19.1505C33.8525 17.5357 32.9154 16.1037 31.6002 15.0806C30.285 14.0575 28.6665 13.5016 27.0002 13.5005H25.1102C24.6562 11.7443 23.8099 10.114 22.6351 8.73195C21.4603 7.34994 19.9875 6.25224 18.3273 5.52138C16.6672 4.79051 14.863 4.4455 13.0504 4.51229C11.2377 4.57907 9.46379 5.05591 7.86195 5.90696C6.26011 6.75801 4.87205 7.96112 3.80212 9.42584C2.73218 10.8906 2.00822 12.5788 1.68465 14.3636C1.36109 16.1483 1.44634 17.9833 1.934 19.7304C2.42167 21.4775 3.29905 23.0913 4.50019 24.4505" stroke="white" stroke-width="3.2" stroke-linecap="round" stroke-linejoin="round"/>
<path d="M24 24.0002L18 18.0002L12 24.0002" stroke="white" stroke-width="3.2" stroke-linecap="round" stroke-linejoin="round"/>
</g>
<defs>
<clipPath id="clip0_432_3927">
<rect width="36" height="36" fill="white" transform="translate(0 0.000244141)"/>
</clipPath>
</defs>
</svg>
